<mxfile host="app.diagrams.net" modified="2024-04-04T10:59:52.298Z" agent="Mozilla/5.0 (Windows NT 10.0; Win64; x64) AppleWebKit/537.36 (KHTML, like Gecko) Chrome/123.0.0.0 Safari/537.36" etag="56jFnofavKMoDSgag2pC" version="24.1.0" type="device">
  <diagram name="Página-1" id="5JnMGBs6PUh2cWMgdqGN">
    <mxGraphModel dx="1434" dy="738" grid="1" gridSize="10" guides="1" tooltips="1" connect="1" arrows="1" fold="1" page="1" pageScale="1" pageWidth="1169" pageHeight="827" math="0" shadow="0">
      <root>
        <mxCell id="0" />
        <mxCell id="1" parent="0" />
        <mxCell id="ixOYGeo-lvrAnwdpMZNk-3" style="edgeStyle=orthogonalEdgeStyle;rounded=0;orthogonalLoop=1;jettySize=auto;html=1;exitX=1;exitY=0.5;exitDx=0;exitDy=0;entryX=0;entryY=0.5;entryDx=0;entryDy=0;" parent="1" source="ixOYGeo-lvrAnwdpMZNk-1" target="ixOYGeo-lvrAnwdpMZNk-2" edge="1">
          <mxGeometry relative="1" as="geometry" />
        </mxCell>
        <mxCell id="ixOYGeo-lvrAnwdpMZNk-1" value="Login" style="ellipse;whiteSpace=wrap;html=1;aspect=fixed;" parent="1" vertex="1">
          <mxGeometry x="40" y="30" width="80" height="80" as="geometry" />
        </mxCell>
        <mxCell id="ixOYGeo-lvrAnwdpMZNk-2" value="Login/Sign in" style="rounded=1;whiteSpace=wrap;html=1;" parent="1" vertex="1">
          <mxGeometry x="270" y="40" width="120" height="60" as="geometry" />
        </mxCell>
        <mxCell id="ixOYGeo-lvrAnwdpMZNk-4" value="Access" style="text;html=1;align=center;verticalAlign=middle;whiteSpace=wrap;rounded=0;" parent="1" vertex="1">
          <mxGeometry x="170" y="40" width="60" height="30" as="geometry" />
        </mxCell>
        <mxCell id="ixOYGeo-lvrAnwdpMZNk-11" style="edgeStyle=orthogonalEdgeStyle;rounded=0;orthogonalLoop=1;jettySize=auto;html=1;exitX=1;exitY=0.5;exitDx=0;exitDy=0;entryX=0;entryY=0.5;entryDx=0;entryDy=0;" parent="1" source="ixOYGeo-lvrAnwdpMZNk-5" target="ixOYGeo-lvrAnwdpMZNk-8" edge="1">
          <mxGeometry relative="1" as="geometry" />
        </mxCell>
        <mxCell id="ixOYGeo-lvrAnwdpMZNk-5" value="Notícias" style="ellipse;whiteSpace=wrap;html=1;aspect=fixed;" parent="1" vertex="1">
          <mxGeometry x="450" y="42" width="80" height="80" as="geometry" />
        </mxCell>
        <mxCell id="ixOYGeo-lvrAnwdpMZNk-13" style="edgeStyle=orthogonalEdgeStyle;rounded=0;orthogonalLoop=1;jettySize=auto;html=1;exitX=0;exitY=0.75;exitDx=0;exitDy=0;entryX=1;entryY=0.75;entryDx=0;entryDy=0;" parent="1" source="ixOYGeo-lvrAnwdpMZNk-6" target="ixOYGeo-lvrAnwdpMZNk-8" edge="1">
          <mxGeometry relative="1" as="geometry" />
        </mxCell>
        <mxCell id="ixOYGeo-lvrAnwdpMZNk-24" style="edgeStyle=orthogonalEdgeStyle;rounded=0;orthogonalLoop=1;jettySize=auto;html=1;exitX=1;exitY=0.25;exitDx=0;exitDy=0;entryX=0;entryY=0.25;entryDx=0;entryDy=0;" parent="1" source="ixOYGeo-lvrAnwdpMZNk-6" target="ixOYGeo-lvrAnwdpMZNk-16" edge="1">
          <mxGeometry relative="1" as="geometry" />
        </mxCell>
        <mxCell id="ixOYGeo-lvrAnwdpMZNk-6" value="Estatisticas Negativas" style="rounded=1;whiteSpace=wrap;html=1;" parent="1" vertex="1">
          <mxGeometry x="780" y="52" width="120" height="60" as="geometry" />
        </mxCell>
        <mxCell id="ixOYGeo-lvrAnwdpMZNk-12" style="edgeStyle=orthogonalEdgeStyle;rounded=0;orthogonalLoop=1;jettySize=auto;html=1;exitX=1;exitY=0.25;exitDx=0;exitDy=0;entryX=0;entryY=0.25;entryDx=0;entryDy=0;" parent="1" source="ixOYGeo-lvrAnwdpMZNk-8" target="ixOYGeo-lvrAnwdpMZNk-6" edge="1">
          <mxGeometry relative="1" as="geometry" />
        </mxCell>
        <mxCell id="ixOYGeo-lvrAnwdpMZNk-8" value="Trendings" style="rounded=1;whiteSpace=wrap;html=1;" parent="1" vertex="1">
          <mxGeometry x="580" y="52" width="120" height="60" as="geometry" />
        </mxCell>
        <mxCell id="ixOYGeo-lvrAnwdpMZNk-14" value="Back" style="text;html=1;align=center;verticalAlign=middle;whiteSpace=wrap;rounded=0;" parent="1" vertex="1">
          <mxGeometry x="710" y="92" width="60" height="30" as="geometry" />
        </mxCell>
        <mxCell id="ixOYGeo-lvrAnwdpMZNk-15" value="Check" style="text;html=1;align=center;verticalAlign=middle;whiteSpace=wrap;rounded=0;" parent="1" vertex="1">
          <mxGeometry x="710" y="42" width="60" height="30" as="geometry" />
        </mxCell>
        <mxCell id="ixOYGeo-lvrAnwdpMZNk-25" style="edgeStyle=orthogonalEdgeStyle;rounded=0;orthogonalLoop=1;jettySize=auto;html=1;exitX=0;exitY=0.75;exitDx=0;exitDy=0;entryX=1;entryY=0.75;entryDx=0;entryDy=0;" parent="1" source="ixOYGeo-lvrAnwdpMZNk-16" target="ixOYGeo-lvrAnwdpMZNk-6" edge="1">
          <mxGeometry relative="1" as="geometry" />
        </mxCell>
        <mxCell id="ixOYGeo-lvrAnwdpMZNk-16" value="Estatísticas Positivas" style="rounded=1;whiteSpace=wrap;html=1;" parent="1" vertex="1">
          <mxGeometry x="967" y="52" width="120" height="60" as="geometry" />
        </mxCell>
        <mxCell id="ixOYGeo-lvrAnwdpMZNk-28" style="edgeStyle=orthogonalEdgeStyle;rounded=0;orthogonalLoop=1;jettySize=auto;html=1;exitX=1;exitY=0.5;exitDx=0;exitDy=0;entryX=0;entryY=0.5;entryDx=0;entryDy=0;" parent="1" source="ixOYGeo-lvrAnwdpMZNk-26" target="ixOYGeo-lvrAnwdpMZNk-27" edge="1">
          <mxGeometry relative="1" as="geometry" />
        </mxCell>
        <mxCell id="ixOYGeo-lvrAnwdpMZNk-26" value="Analisar Carnes" style="ellipse;whiteSpace=wrap;html=1;aspect=fixed;" parent="1" vertex="1">
          <mxGeometry x="40" y="140" width="80" height="80" as="geometry" />
        </mxCell>
        <mxCell id="ixOYGeo-lvrAnwdpMZNk-31" style="edgeStyle=orthogonalEdgeStyle;rounded=0;orthogonalLoop=1;jettySize=auto;html=1;exitX=1;exitY=0.5;exitDx=0;exitDy=0;entryX=0;entryY=0.5;entryDx=0;entryDy=0;" parent="1" source="ixOYGeo-lvrAnwdpMZNk-27" target="ixOYGeo-lvrAnwdpMZNk-30" edge="1">
          <mxGeometry relative="1" as="geometry" />
        </mxCell>
        <mxCell id="ixOYGeo-lvrAnwdpMZNk-27" value="Leitor&amp;nbsp;&lt;div&gt;QR Code&lt;/div&gt;" style="rounded=1;whiteSpace=wrap;html=1;" parent="1" vertex="1">
          <mxGeometry x="230" y="150" width="120" height="60" as="geometry" />
        </mxCell>
        <mxCell id="ixOYGeo-lvrAnwdpMZNk-29" value="Access" style="text;html=1;align=center;verticalAlign=middle;whiteSpace=wrap;rounded=0;" parent="1" vertex="1">
          <mxGeometry x="140" y="150" width="60" height="30" as="geometry" />
        </mxCell>
        <mxCell id="ixOYGeo-lvrAnwdpMZNk-36" style="edgeStyle=orthogonalEdgeStyle;rounded=0;orthogonalLoop=1;jettySize=auto;html=1;exitX=1;exitY=0.25;exitDx=0;exitDy=0;entryX=0;entryY=0.25;entryDx=0;entryDy=0;" parent="1" source="ixOYGeo-lvrAnwdpMZNk-30" target="ixOYGeo-lvrAnwdpMZNk-33" edge="1">
          <mxGeometry relative="1" as="geometry" />
        </mxCell>
        <mxCell id="ixOYGeo-lvrAnwdpMZNk-30" value="Informações do Produto lido" style="rounded=1;whiteSpace=wrap;html=1;" parent="1" vertex="1">
          <mxGeometry x="460" y="150" width="125" height="60" as="geometry" />
        </mxCell>
        <mxCell id="ixOYGeo-lvrAnwdpMZNk-32" value="Scan" style="text;html=1;align=center;verticalAlign=middle;whiteSpace=wrap;rounded=0;" parent="1" vertex="1">
          <mxGeometry x="380" y="150" width="60" height="30" as="geometry" />
        </mxCell>
        <mxCell id="ixOYGeo-lvrAnwdpMZNk-37" style="edgeStyle=orthogonalEdgeStyle;rounded=0;orthogonalLoop=1;jettySize=auto;html=1;exitX=0;exitY=0.75;exitDx=0;exitDy=0;entryX=1;entryY=0.75;entryDx=0;entryDy=0;" parent="1" source="ixOYGeo-lvrAnwdpMZNk-33" target="ixOYGeo-lvrAnwdpMZNk-30" edge="1">
          <mxGeometry relative="1" as="geometry" />
        </mxCell>
        <mxCell id="ixOYGeo-lvrAnwdpMZNk-33" value="Mais informações" style="rounded=1;whiteSpace=wrap;html=1;" parent="1" vertex="1">
          <mxGeometry x="699" y="150" width="120" height="60" as="geometry" />
        </mxCell>
        <mxCell id="ixOYGeo-lvrAnwdpMZNk-35" value="Access" style="text;html=1;align=center;verticalAlign=middle;whiteSpace=wrap;rounded=0;" parent="1" vertex="1">
          <mxGeometry x="610" y="130" width="60" height="30" as="geometry" />
        </mxCell>
        <mxCell id="ixOYGeo-lvrAnwdpMZNk-38" value="Back" style="text;html=1;align=center;verticalAlign=middle;whiteSpace=wrap;rounded=0;" parent="1" vertex="1">
          <mxGeometry x="610" y="199" width="60" height="30" as="geometry" />
        </mxCell>
        <mxCell id="XId0W92JZgNJ1yT1Dyrr-20" style="edgeStyle=orthogonalEdgeStyle;rounded=0;orthogonalLoop=1;jettySize=auto;html=1;exitX=1;exitY=0.5;exitDx=0;exitDy=0;entryX=0;entryY=0.5;entryDx=0;entryDy=0;" edge="1" parent="1" source="XId0W92JZgNJ1yT1Dyrr-1" target="XId0W92JZgNJ1yT1Dyrr-19">
          <mxGeometry relative="1" as="geometry" />
        </mxCell>
        <mxCell id="XId0W92JZgNJ1yT1Dyrr-1" value="Notícias" style="ellipse;whiteSpace=wrap;html=1;aspect=fixed;" vertex="1" parent="1">
          <mxGeometry x="465" y="1350" width="80" height="80" as="geometry" />
        </mxCell>
        <mxCell id="XId0W92JZgNJ1yT1Dyrr-2" value="Check" style="text;html=1;align=center;verticalAlign=middle;whiteSpace=wrap;rounded=0;" vertex="1" parent="1">
          <mxGeometry x="903" y="40" width="60" height="30" as="geometry" />
        </mxCell>
        <mxCell id="XId0W92JZgNJ1yT1Dyrr-3" value="Back" style="text;html=1;align=center;verticalAlign=middle;whiteSpace=wrap;rounded=0;" vertex="1" parent="1">
          <mxGeometry x="907" y="92" width="60" height="30" as="geometry" />
        </mxCell>
        <mxCell id="XId0W92JZgNJ1yT1Dyrr-12" style="edgeStyle=orthogonalEdgeStyle;rounded=0;orthogonalLoop=1;jettySize=auto;html=1;exitX=1;exitY=0.5;exitDx=0;exitDy=0;entryX=0;entryY=0.5;entryDx=0;entryDy=0;" edge="1" parent="1" source="XId0W92JZgNJ1yT1Dyrr-4" target="XId0W92JZgNJ1yT1Dyrr-11">
          <mxGeometry relative="1" as="geometry" />
        </mxCell>
        <mxCell id="XId0W92JZgNJ1yT1Dyrr-4" value="Ver carnes disponiveis" style="ellipse;whiteSpace=wrap;html=1;aspect=fixed;" vertex="1" parent="1">
          <mxGeometry x="40" y="360" width="80" height="80" as="geometry" />
        </mxCell>
        <mxCell id="XId0W92JZgNJ1yT1Dyrr-5" value="&lt;font style=&quot;font-size: 23px;&quot;&gt;Micro-histórias&lt;/font&gt;" style="text;html=1;align=center;verticalAlign=middle;whiteSpace=wrap;rounded=0;" vertex="1" parent="1">
          <mxGeometry x="460" y="10" width="250" height="30" as="geometry" />
        </mxCell>
        <mxCell id="XId0W92JZgNJ1yT1Dyrr-6" value="&lt;font style=&quot;font-size: 23px;&quot;&gt;História 1&lt;/font&gt;" style="text;html=1;align=center;verticalAlign=middle;whiteSpace=wrap;rounded=0;" vertex="1" parent="1">
          <mxGeometry x="500" y="850" width="170" height="30" as="geometry" />
        </mxCell>
        <mxCell id="XId0W92JZgNJ1yT1Dyrr-7" value="&lt;div style=&quot;text-align: justify; font-size: 14px;&quot;&gt;&lt;font style=&quot;font-size: 14px;&quot;&gt;O Manuel foi ao Supermercado (continente de telheiras), ao chegar à secção do talho, deparou-se com uma belissima caixa de carne de vaca. Mas o Manuel é uma pessoa que se preocupa muito com a qualidade da carne e com o bem estar dos animais que come. Assim sendo, lembrou-se que tinha no seu telemovel a aplicação ideal para o ajudar a decidir que qualidade de carne comprar.&lt;/font&gt;&lt;/div&gt;&lt;div style=&quot;text-align: justify; font-size: 14px;&quot;&gt;&lt;font style=&quot;font-size: 14px;&quot;&gt;O primeiro passo para o sucesso do Manel é encontrar o leitor de QR code da aplicação, e fazer o scann do codigo de barras da caixa. Assim, teve acesso às informações e a avaliação dos outros utilziadores da respetiva carne&lt;/font&gt;&lt;/div&gt;" style="text;html=1;align=center;verticalAlign=middle;whiteSpace=wrap;rounded=0;" vertex="1" parent="1">
          <mxGeometry x="10" y="900" width="1140" height="90" as="geometry" />
        </mxCell>
        <mxCell id="XId0W92JZgNJ1yT1Dyrr-8" value="Analizar carnes" style="ellipse;whiteSpace=wrap;html=1;aspect=fixed;" vertex="1" parent="1">
          <mxGeometry x="540" y="1000" width="80" height="80" as="geometry" />
        </mxCell>
        <mxCell id="XId0W92JZgNJ1yT1Dyrr-9" value="&lt;font style=&quot;font-size: 23px;&quot;&gt;História 2&lt;/font&gt;" style="text;html=1;align=center;verticalAlign=middle;whiteSpace=wrap;rounded=0;" vertex="1" parent="1">
          <mxGeometry x="500" y="1120" width="170" height="30" as="geometry" />
        </mxCell>
        <mxCell id="XId0W92JZgNJ1yT1Dyrr-10" value="&lt;div style=&quot;text-align: justify;&quot;&gt;&lt;span style=&quot;background-color: initial;&quot;&gt;&lt;font style=&quot;font-size: 14px;&quot;&gt;O António está sentado no seu sofá a pensar onde vai comprar a carne para o jantar. Assim, ele lembra-se que tem a melhor aplicação para o ajudar na decisão do supermercado/talho onde irá comprar a sua carne. O António, um expert da aplicação QRMeat, verifica as noticias mais recentes para se certificar de que não existem estabeleciemtos com red flags perto de si. Com isto, o António vai pesquisar pelos supermercados/talhos mais proximos da sua casa, e consquentemente pelas várias carnes disponiveis em cada um. Quando encontra uma carne do seu agrado, o António vai guardar nos favoritos e deslocar-se até ao supermercado/talho escolhido. Após a compra da carne, o António vai dar o seu feedback para ajudar os restantes utilizadores nas suas escolhas&lt;/font&gt;&lt;/span&gt;&lt;/div&gt;" style="text;html=1;align=center;verticalAlign=middle;whiteSpace=wrap;rounded=0;" vertex="1" parent="1">
          <mxGeometry x="10" y="1190" width="1140" height="100" as="geometry" />
        </mxCell>
        <mxCell id="XId0W92JZgNJ1yT1Dyrr-14" style="edgeStyle=orthogonalEdgeStyle;rounded=0;orthogonalLoop=1;jettySize=auto;html=1;exitX=1;exitY=0.5;exitDx=0;exitDy=0;entryX=0;entryY=0.5;entryDx=0;entryDy=0;" edge="1" parent="1" source="XId0W92JZgNJ1yT1Dyrr-11" target="XId0W92JZgNJ1yT1Dyrr-13">
          <mxGeometry relative="1" as="geometry" />
        </mxCell>
        <mxCell id="XId0W92JZgNJ1yT1Dyrr-11" value="Home page" style="rounded=1;whiteSpace=wrap;html=1;" vertex="1" parent="1">
          <mxGeometry x="200" y="370" width="120" height="60" as="geometry" />
        </mxCell>
        <mxCell id="XId0W92JZgNJ1yT1Dyrr-23" style="edgeStyle=orthogonalEdgeStyle;rounded=0;orthogonalLoop=1;jettySize=auto;html=1;exitX=1;exitY=0.25;exitDx=0;exitDy=0;entryX=0;entryY=0.25;entryDx=0;entryDy=0;" edge="1" parent="1" source="XId0W92JZgNJ1yT1Dyrr-13" target="XId0W92JZgNJ1yT1Dyrr-22">
          <mxGeometry relative="1" as="geometry" />
        </mxCell>
        <mxCell id="XId0W92JZgNJ1yT1Dyrr-13" value="Ver categorias disponiveis no supermercado selecionado" style="rounded=1;whiteSpace=wrap;html=1;" vertex="1" parent="1">
          <mxGeometry x="420" y="370" width="120" height="60" as="geometry" />
        </mxCell>
        <mxCell id="XId0W92JZgNJ1yT1Dyrr-15" value="Select" style="text;html=1;align=center;verticalAlign=middle;whiteSpace=wrap;rounded=0;" vertex="1" parent="1">
          <mxGeometry x="340" y="370" width="60" height="30" as="geometry" />
        </mxCell>
        <mxCell id="XId0W92JZgNJ1yT1Dyrr-16" value="Access" style="text;html=1;align=center;verticalAlign=middle;whiteSpace=wrap;rounded=0;" vertex="1" parent="1">
          <mxGeometry x="130" y="370" width="60" height="30" as="geometry" />
        </mxCell>
        <mxCell id="XId0W92JZgNJ1yT1Dyrr-18" style="edgeStyle=orthogonalEdgeStyle;rounded=0;orthogonalLoop=1;jettySize=auto;html=1;exitX=1;exitY=0.5;exitDx=0;exitDy=0;entryX=0;entryY=0.5;entryDx=0;entryDy=0;" edge="1" parent="1" source="XId0W92JZgNJ1yT1Dyrr-17" target="XId0W92JZgNJ1yT1Dyrr-1">
          <mxGeometry relative="1" as="geometry" />
        </mxCell>
        <mxCell id="XId0W92JZgNJ1yT1Dyrr-17" value="Login" style="ellipse;whiteSpace=wrap;html=1;aspect=fixed;" vertex="1" parent="1">
          <mxGeometry x="315" y="1350" width="80" height="80" as="geometry" />
        </mxCell>
        <mxCell id="XId0W92JZgNJ1yT1Dyrr-66" style="edgeStyle=orthogonalEdgeStyle;rounded=0;orthogonalLoop=1;jettySize=auto;html=1;exitX=1;exitY=0.5;exitDx=0;exitDy=0;entryX=0;entryY=0.5;entryDx=0;entryDy=0;" edge="1" parent="1" source="XId0W92JZgNJ1yT1Dyrr-19" target="XId0W92JZgNJ1yT1Dyrr-65">
          <mxGeometry relative="1" as="geometry" />
        </mxCell>
        <mxCell id="XId0W92JZgNJ1yT1Dyrr-19" value="Ver carnes disponiveis" style="ellipse;whiteSpace=wrap;html=1;aspect=fixed;" vertex="1" parent="1">
          <mxGeometry x="615" y="1350" width="80" height="80" as="geometry" />
        </mxCell>
        <mxCell id="XId0W92JZgNJ1yT1Dyrr-25" style="edgeStyle=orthogonalEdgeStyle;rounded=0;orthogonalLoop=1;jettySize=auto;html=1;exitX=0;exitY=0.75;exitDx=0;exitDy=0;entryX=1;entryY=0.75;entryDx=0;entryDy=0;" edge="1" parent="1" source="XId0W92JZgNJ1yT1Dyrr-22" target="XId0W92JZgNJ1yT1Dyrr-13">
          <mxGeometry relative="1" as="geometry" />
        </mxCell>
        <mxCell id="XId0W92JZgNJ1yT1Dyrr-29" style="edgeStyle=orthogonalEdgeStyle;rounded=0;orthogonalLoop=1;jettySize=auto;html=1;exitX=1;exitY=0.25;exitDx=0;exitDy=0;entryX=0;entryY=0.25;entryDx=0;entryDy=0;" edge="1" parent="1" source="XId0W92JZgNJ1yT1Dyrr-22" target="XId0W92JZgNJ1yT1Dyrr-28">
          <mxGeometry relative="1" as="geometry" />
        </mxCell>
        <mxCell id="XId0W92JZgNJ1yT1Dyrr-32" style="edgeStyle=orthogonalEdgeStyle;rounded=0;orthogonalLoop=1;jettySize=auto;html=1;exitX=0.25;exitY=0;exitDx=0;exitDy=0;entryX=0.25;entryY=1;entryDx=0;entryDy=0;" edge="1" parent="1" source="XId0W92JZgNJ1yT1Dyrr-22" target="XId0W92JZgNJ1yT1Dyrr-31">
          <mxGeometry relative="1" as="geometry" />
        </mxCell>
        <mxCell id="XId0W92JZgNJ1yT1Dyrr-22" value="Ver informações do produto selecionado" style="rounded=1;whiteSpace=wrap;html=1;" vertex="1" parent="1">
          <mxGeometry x="628" y="370" width="120" height="60" as="geometry" />
        </mxCell>
        <mxCell id="XId0W92JZgNJ1yT1Dyrr-24" value="Select" style="text;html=1;align=center;verticalAlign=middle;whiteSpace=wrap;rounded=0;" vertex="1" parent="1">
          <mxGeometry x="554.5" y="350" width="60" height="30" as="geometry" />
        </mxCell>
        <mxCell id="XId0W92JZgNJ1yT1Dyrr-26" value="Back" style="text;html=1;align=center;verticalAlign=middle;whiteSpace=wrap;rounded=0;" vertex="1" parent="1">
          <mxGeometry x="554.5" y="420" width="60" height="30" as="geometry" />
        </mxCell>
        <mxCell id="XId0W92JZgNJ1yT1Dyrr-30" style="edgeStyle=orthogonalEdgeStyle;rounded=0;orthogonalLoop=1;jettySize=auto;html=1;exitX=0;exitY=0.75;exitDx=0;exitDy=0;entryX=1;entryY=0.75;entryDx=0;entryDy=0;" edge="1" parent="1" source="XId0W92JZgNJ1yT1Dyrr-28" target="XId0W92JZgNJ1yT1Dyrr-22">
          <mxGeometry relative="1" as="geometry" />
        </mxCell>
        <mxCell id="XId0W92JZgNJ1yT1Dyrr-28" value="Mais informações" style="rounded=1;whiteSpace=wrap;html=1;" vertex="1" parent="1">
          <mxGeometry x="839" y="370" width="120" height="60" as="geometry" />
        </mxCell>
        <mxCell id="XId0W92JZgNJ1yT1Dyrr-33" style="edgeStyle=orthogonalEdgeStyle;rounded=0;orthogonalLoop=1;jettySize=auto;html=1;exitX=0.75;exitY=1;exitDx=0;exitDy=0;entryX=0.75;entryY=0;entryDx=0;entryDy=0;" edge="1" parent="1" source="XId0W92JZgNJ1yT1Dyrr-31" target="XId0W92JZgNJ1yT1Dyrr-22">
          <mxGeometry relative="1" as="geometry" />
        </mxCell>
        <mxCell id="XId0W92JZgNJ1yT1Dyrr-39" style="edgeStyle=orthogonalEdgeStyle;rounded=0;orthogonalLoop=1;jettySize=auto;html=1;exitX=1;exitY=0.5;exitDx=0;exitDy=0;entryX=0;entryY=0.5;entryDx=0;entryDy=0;" edge="1" parent="1" source="XId0W92JZgNJ1yT1Dyrr-31" target="XId0W92JZgNJ1yT1Dyrr-38">
          <mxGeometry relative="1" as="geometry" />
        </mxCell>
        <mxCell id="XId0W92JZgNJ1yT1Dyrr-31" value="Ver Feedback" style="rounded=1;whiteSpace=wrap;html=1;" vertex="1" parent="1">
          <mxGeometry x="628" y="250" width="120" height="60" as="geometry" />
        </mxCell>
        <mxCell id="XId0W92JZgNJ1yT1Dyrr-34" value="Access" style="text;html=1;align=center;verticalAlign=middle;whiteSpace=wrap;rounded=0;" vertex="1" parent="1">
          <mxGeometry x="759" y="360" width="60" height="30" as="geometry" />
        </mxCell>
        <mxCell id="XId0W92JZgNJ1yT1Dyrr-35" value="Back" style="text;html=1;align=center;verticalAlign=middle;whiteSpace=wrap;rounded=0;" vertex="1" parent="1">
          <mxGeometry x="764" y="410" width="60" height="30" as="geometry" />
        </mxCell>
        <mxCell id="XId0W92JZgNJ1yT1Dyrr-36" value="Access" style="text;html=1;align=center;verticalAlign=middle;whiteSpace=wrap;rounded=0;" vertex="1" parent="1">
          <mxGeometry x="600" y="330" width="60" height="30" as="geometry" />
        </mxCell>
        <mxCell id="XId0W92JZgNJ1yT1Dyrr-37" value="Back" style="text;html=1;align=center;verticalAlign=middle;whiteSpace=wrap;rounded=0;" vertex="1" parent="1">
          <mxGeometry x="720" y="330" width="60" height="30" as="geometry" />
        </mxCell>
        <mxCell id="XId0W92JZgNJ1yT1Dyrr-38" value="Favoritos" style="rounded=1;whiteSpace=wrap;html=1;" vertex="1" parent="1">
          <mxGeometry x="839" y="250" width="120" height="60" as="geometry" />
        </mxCell>
        <mxCell id="XId0W92JZgNJ1yT1Dyrr-41" value="Add" style="text;html=1;align=center;verticalAlign=middle;whiteSpace=wrap;rounded=0;" vertex="1" parent="1">
          <mxGeometry x="764" y="250" width="60" height="30" as="geometry" />
        </mxCell>
        <mxCell id="XId0W92JZgNJ1yT1Dyrr-45" style="edgeStyle=orthogonalEdgeStyle;rounded=0;orthogonalLoop=1;jettySize=auto;html=1;exitX=1;exitY=0.5;exitDx=0;exitDy=0;entryX=0;entryY=0.5;entryDx=0;entryDy=0;" edge="1" parent="1" source="XId0W92JZgNJ1yT1Dyrr-43" target="XId0W92JZgNJ1yT1Dyrr-44">
          <mxGeometry relative="1" as="geometry" />
        </mxCell>
        <mxCell id="XId0W92JZgNJ1yT1Dyrr-43" value="Adicionar feedback" style="ellipse;whiteSpace=wrap;html=1;aspect=fixed;" vertex="1" parent="1">
          <mxGeometry x="37.5" y="530" width="80" height="80" as="geometry" />
        </mxCell>
        <mxCell id="XId0W92JZgNJ1yT1Dyrr-48" style="edgeStyle=orthogonalEdgeStyle;rounded=0;orthogonalLoop=1;jettySize=auto;html=1;exitX=1;exitY=0.25;exitDx=0;exitDy=0;entryX=0;entryY=0.25;entryDx=0;entryDy=0;" edge="1" parent="1" source="XId0W92JZgNJ1yT1Dyrr-44" target="XId0W92JZgNJ1yT1Dyrr-46">
          <mxGeometry relative="1" as="geometry" />
        </mxCell>
        <mxCell id="XId0W92JZgNJ1yT1Dyrr-44" value="Favoritos" style="rounded=1;whiteSpace=wrap;html=1;" vertex="1" parent="1">
          <mxGeometry x="187.5" y="540" width="120" height="60" as="geometry" />
        </mxCell>
        <mxCell id="XId0W92JZgNJ1yT1Dyrr-49" style="edgeStyle=orthogonalEdgeStyle;rounded=0;orthogonalLoop=1;jettySize=auto;html=1;exitX=0;exitY=0.75;exitDx=0;exitDy=0;entryX=1;entryY=0.75;entryDx=0;entryDy=0;" edge="1" parent="1" source="XId0W92JZgNJ1yT1Dyrr-46" target="XId0W92JZgNJ1yT1Dyrr-44">
          <mxGeometry relative="1" as="geometry" />
        </mxCell>
        <mxCell id="XId0W92JZgNJ1yT1Dyrr-52" style="edgeStyle=orthogonalEdgeStyle;rounded=0;orthogonalLoop=1;jettySize=auto;html=1;exitX=1;exitY=0.25;exitDx=0;exitDy=0;entryX=0;entryY=0.25;entryDx=0;entryDy=0;" edge="1" parent="1" source="XId0W92JZgNJ1yT1Dyrr-46" target="XId0W92JZgNJ1yT1Dyrr-50">
          <mxGeometry relative="1" as="geometry" />
        </mxCell>
        <mxCell id="XId0W92JZgNJ1yT1Dyrr-46" value="Ver informações do produto selecionado" style="rounded=1;whiteSpace=wrap;html=1;" vertex="1" parent="1">
          <mxGeometry x="397.5" y="540" width="120" height="60" as="geometry" />
        </mxCell>
        <mxCell id="XId0W92JZgNJ1yT1Dyrr-53" style="edgeStyle=orthogonalEdgeStyle;rounded=0;orthogonalLoop=1;jettySize=auto;html=1;exitX=0;exitY=0.75;exitDx=0;exitDy=0;entryX=1;entryY=0.75;entryDx=0;entryDy=0;" edge="1" parent="1" source="XId0W92JZgNJ1yT1Dyrr-50" target="XId0W92JZgNJ1yT1Dyrr-46">
          <mxGeometry relative="1" as="geometry" />
        </mxCell>
        <mxCell id="XId0W92JZgNJ1yT1Dyrr-50" value="Ver Feedback" style="rounded=1;whiteSpace=wrap;html=1;" vertex="1" parent="1">
          <mxGeometry x="582.5" y="540" width="120" height="60" as="geometry" />
        </mxCell>
        <mxCell id="XId0W92JZgNJ1yT1Dyrr-51" value="Access" style="text;html=1;align=center;verticalAlign=middle;whiteSpace=wrap;rounded=0;" vertex="1" parent="1">
          <mxGeometry x="525" y="55" width="60" height="30" as="geometry" />
        </mxCell>
        <mxCell id="XId0W92JZgNJ1yT1Dyrr-57" style="edgeStyle=orthogonalEdgeStyle;rounded=0;orthogonalLoop=1;jettySize=auto;html=1;exitX=0;exitY=0.75;exitDx=0;exitDy=0;entryX=1;entryY=0.75;entryDx=0;entryDy=0;" edge="1" parent="1" source="XId0W92JZgNJ1yT1Dyrr-55" target="XId0W92JZgNJ1yT1Dyrr-50">
          <mxGeometry relative="1" as="geometry" />
        </mxCell>
        <mxCell id="XId0W92JZgNJ1yT1Dyrr-55" value="Adicionar Feedback" style="rounded=1;whiteSpace=wrap;html=1;" vertex="1" parent="1">
          <mxGeometry x="780" y="540" width="120" height="60" as="geometry" />
        </mxCell>
        <mxCell id="XId0W92JZgNJ1yT1Dyrr-56" style="edgeStyle=orthogonalEdgeStyle;rounded=0;orthogonalLoop=1;jettySize=auto;html=1;exitX=1;exitY=0.25;exitDx=0;exitDy=0;entryX=0;entryY=0.25;entryDx=0;entryDy=0;" edge="1" parent="1" source="XId0W92JZgNJ1yT1Dyrr-50" target="XId0W92JZgNJ1yT1Dyrr-55">
          <mxGeometry relative="1" as="geometry" />
        </mxCell>
        <mxCell id="XId0W92JZgNJ1yT1Dyrr-58" value="Access" style="text;html=1;align=center;verticalAlign=middle;whiteSpace=wrap;rounded=0;" vertex="1" parent="1">
          <mxGeometry x="710" y="530" width="60" height="30" as="geometry" />
        </mxCell>
        <mxCell id="XId0W92JZgNJ1yT1Dyrr-59" value="Submit" style="text;html=1;align=center;verticalAlign=middle;whiteSpace=wrap;rounded=0;" vertex="1" parent="1">
          <mxGeometry x="710" y="590" width="60" height="30" as="geometry" />
        </mxCell>
        <mxCell id="XId0W92JZgNJ1yT1Dyrr-60" value="Access" style="text;html=1;align=center;verticalAlign=middle;whiteSpace=wrap;rounded=0;" vertex="1" parent="1">
          <mxGeometry x="517.5" y="530" width="60" height="30" as="geometry" />
        </mxCell>
        <mxCell id="XId0W92JZgNJ1yT1Dyrr-61" value="Access" style="text;html=1;align=center;verticalAlign=middle;whiteSpace=wrap;rounded=0;" vertex="1" parent="1">
          <mxGeometry x="320" y="530" width="60" height="30" as="geometry" />
        </mxCell>
        <mxCell id="XId0W92JZgNJ1yT1Dyrr-62" value="Access" style="text;html=1;align=center;verticalAlign=middle;whiteSpace=wrap;rounded=0;" vertex="1" parent="1">
          <mxGeometry x="117.5" y="540" width="60" height="30" as="geometry" />
        </mxCell>
        <mxCell id="XId0W92JZgNJ1yT1Dyrr-63" value="Back" style="text;html=1;align=center;verticalAlign=middle;whiteSpace=wrap;rounded=0;" vertex="1" parent="1">
          <mxGeometry x="520" y="580" width="60" height="30" as="geometry" />
        </mxCell>
        <mxCell id="XId0W92JZgNJ1yT1Dyrr-64" value="Back" style="text;html=1;align=center;verticalAlign=middle;whiteSpace=wrap;rounded=0;" vertex="1" parent="1">
          <mxGeometry x="320" y="580" width="60" height="30" as="geometry" />
        </mxCell>
        <mxCell id="XId0W92JZgNJ1yT1Dyrr-65" value="Adicionar Feedback" style="ellipse;whiteSpace=wrap;html=1;aspect=fixed;" vertex="1" parent="1">
          <mxGeometry x="765" y="1350" width="80" height="80" as="geometry" />
        </mxCell>
      </root>
    </mxGraphModel>
  </diagram>
</mxfile>
